<?xml version="1.0" encoding="UTF-8"?>
<svg version="1.1" xmlns="http://www.w3.org/2000/svg" width="300" height="250">
<path d="M0 0 C3.51568945 1.50334328 5.77701757 3.53007264 8.46722412 6.22671509 C9.35620895 7.11295059 10.24519379 7.9991861 11.16111755 8.91227722 C12.13842926 9.89666663 13.11564467 10.88115165 14.09277344 11.86572266 C15.12740339 12.90091687 16.16247417 13.93567065 17.19795227 14.97001648 C20.00584082 17.77733112 22.80751943 20.59077028 25.60813046 23.40534258 C28.53671011 26.34642319 31.47095302 29.2818425 34.40460205 32.21786499 C39.95816854 37.77764811 45.50661702 43.3425099 51.05324864 48.90921056 C57.36849971 55.24681492 63.68942951 61.57874243 70.01084471 67.9101975 C83.01356242 80.93382135 96.00912512 93.96456361 109 107 C107.50878361 110.46554549 105.53543965 112.72015096 102.88285828 115.38456726 C102.02067688 116.25527863 101.15849548 117.12598999 100.27018738 118.02308655 C99.31263874 118.9799362 98.35497812 119.93667379 97.3972168 120.89331055 C96.38986805 121.90664507 95.38293038 122.92038839 94.37637329 123.93450928 C91.64352475 126.68501674 88.90422612 129.42901169 86.16317344 132.1713407 C83.87526501 134.46114913 81.59009305 136.75367951 79.3047803 139.04607803 C73.91384246 144.45329584 68.51722592 149.85480159 63.11743164 155.25317383 C57.54604601 160.82335706 51.98591955 166.40460606 46.43094319 171.9911496 C41.6609252 176.78730618 36.88324078 181.57573305 32.09949619 186.35819846 C29.24254835 189.2146361 26.38879951 192.07410071 23.54269981 194.94135094 C20.86668921 197.63670395 18.18127173 200.32231318 15.48830032 203.00071716 C14.50162337 203.98530019 13.51835362 204.97331129 12.53877831 205.9649601 C11.2011544 207.3179969 9.84994212 208.65755982 8.49809265 209.99638367 C7.36956643 211.12654419 7.36956643 211.12654419 6.21824169 212.27953625 C3.76442489 214.18271158 2.05511338 214.65609157 -1 215 C-5.00390625 210.703125 -5.00390625 210.703125 -6 209 C-5.58920176 205.24885333 -3.85195439 203.48095587 -1.23521423 200.87445068 C-0.42608078 200.06119324 0.38305267 199.24793579 1.21670532 198.41003418 C2.11078094 197.52674438 3.00485657 196.64345459 3.92602539 195.73339844 C4.87261801 194.78765212 5.81855035 193.84124454 6.76387024 192.89422607 C9.33143462 190.32580046 11.90814798 187.76673373 14.48658681 185.20923138 C17.17987903 182.5346845 19.86468605 179.85164769 22.55039978 177.16949463 C27.63719443 172.09202673 32.73158852 167.022255 37.82874817 161.95519471 C43.63142483 156.18604241 49.42559197 150.40837599 55.21905529 144.62997389 C67.13658503 132.74380745 79.06477086 120.86839441 91 109 C89.54190191 105.64516562 87.69713436 103.44988336 85.11495972 100.87445068 C84.3044516 100.06119324 83.49394348 99.24793579 82.65887451 98.41003418 C81.76839417 97.52674438 80.87791382 96.64345459 79.96044922 95.73339844 C79.0139238 94.78743735 78.06783893 93.84103527 77.12216187 92.89422607 C74.55657326 90.32806382 71.98486641 87.76811335 69.41201925 85.20923138 C66.72318166 82.53289903 64.04000938 79.8508992 61.35623169 77.16949463 C56.27456387 72.09404217 51.18781945 67.02370937 46.09923279 61.95519471 C40.30575182 56.18407095 34.51795103 50.40726493 28.7306211 44.62997389 C16.82672435 32.74698043 4.91571235 20.87114554 -7 9 C-5.27845212 5.23511958 -3.00765886 2.84936103 0 0 Z " fill="#534AB7" transform="translate(47,18)"/>
<path d="M0 0 C3.3 0 6.6 0 10 0 C10 69.3 10 138.6 10 210 C6.7 210 3.4 210 0 210 C0 140.7 0 71.4 0 0 Z " fill="#000000" transform="translate(281,21)"/>
<path d="M0 0 C3.3 0 6.6 0 10 0 C10 69.3 10 138.6 10 210 C6.7 210 3.4 210 0 210 C0 140.7 0 71.4 0 0 Z " fill="#000000" transform="translate(9,21)"/>
<path d="M0 0 C3.76488042 1.72154788 6.15063897 3.99234114 9 7 C7.56111428 10.28495156 5.78527719 12.46966736 3.26249695 15.00492859 C2.09543716 16.18478333 2.09543716 16.18478333 0.90480042 17.38847351 C0.05022751 18.24214005 -0.8043454 19.09580658 -1.68481445 19.9753418 C-2.5841571 20.88140167 -3.48349976 21.78746155 -4.41009521 22.72097778 C-6.87436239 25.20289501 -9.34506757 27.678305 -11.81753564 30.15204978 C-13.36214483 31.69808129 -14.90532088 33.24552838 -16.44798851 34.79349709 C-21.83030274 40.19430578 -27.21775122 45.58993082 -32.61010742 50.98071289 C-37.63618169 56.00558477 -42.65098605 61.04151216 -47.66064864 66.08274144 C-51.96357686 70.41181393 -56.27417389 74.73314748 -60.59083337 79.04852802 C-63.16832811 81.62551273 -65.74261946 84.20551011 -68.30925941 86.79331017 C-71.17074048 89.67773666 -74.0479899 92.54591324 -76.92700195 95.4128418 C-77.77550217 96.27258102 -78.62400238 97.13232025 -79.49821472 98.01811218 C-80.28471405 98.79622253 -81.07121338 99.57433289 -81.88154602 100.37602234 C-82.5601534 101.05571925 -83.23876078 101.73541616 -83.93793201 102.43570995 C-86.30189921 104.22902151 -88.08245297 104.64418336 -91 105 C-95.00390625 100.703125 -95.00390625 100.703125 -96 99 C-95.58694131 95.26712206 -93.87873054 93.50766837 -91.2731781 90.91241455 C-90.07209915 89.70514961 -90.07209915 89.70514961 -88.84675598 88.47349548 C-87.9620311 87.59955643 -87.07730621 86.72561737 -86.16577148 85.82519531 C-85.23903625 84.898022 -84.31230103 83.97084869 -83.35748291 83.01557922 C-80.8167767 80.47401182 -78.26692297 77.94180407 -75.71534228 75.41116047 C-73.05007701 72.7646412 -70.39329753 70.10963133 -67.73561096 67.45550537 C-62.70194012 62.43116108 -57.66067038 57.41451344 -52.61663443 52.40057731 C-46.87441588 46.69188372 -41.14070735 40.97467547 -35.40770233 35.25673151 C-23.61458664 23.49497868 -11.81081534 11.74397979 0 0 Z " fill="#000000" transform="translate(261,18)"/>
</svg>
